<?xml version="1.0" encoding="UTF-8" standalone="no"?>
<!-- Created with Inkscape (http://www.inkscape.org/) -->

<svg
   xmlns:dc="http://purl.org/dc/elements/1.1/"
   xmlns:cc="http://creativecommons.org/ns#"
   xmlns:rdf="http://www.w3.org/1999/02/22-rdf-syntax-ns#"
   xmlns:svg="http://www.w3.org/2000/svg"
   xmlns="http://www.w3.org/2000/svg"
   xmlns:sodipodi="http://sodipodi.sourceforge.net/DTD/sodipodi-0.dtd"
   xmlns:inkscape="http://www.inkscape.org/namespaces/inkscape"
   width="43.369999"
   height="30"
   id="svg2"
   version="1.1"
   inkscape:version="0.48.4 r9939"
   sodipodi:docname="logosceweb.svg">
  <defs
     id="defs4">
    <clipPath
       id="clipPath40715"
       clipPathUnits="userSpaceOnUse">
      <path
         id="path40717"
         d="m 0,6094.49 2834.65,0 L 2834.65,0 0,0 0,6094.49 z"
         inkscape:connector-curvature="0" />
    </clipPath>
    <clipPath
       id="clipPath40599"
       clipPathUnits="userSpaceOnUse">
      <path
         id="path40601"
         d="m 0,6094.49 2834.65,0 L 2834.65,0 0,0 0,6094.49 z"
         inkscape:connector-curvature="0" />
    </clipPath>
    <clipPath
       id="clipPath40561"
       clipPathUnits="userSpaceOnUse">
      <path
         id="path40563"
         d="m 625.251,5127.23 445.429,0 0,-218.78 -445.429,0 0,218.78 z"
         inkscape:connector-curvature="0" />
    </clipPath>
    <clipPath
       id="clipPath40449"
       clipPathUnits="userSpaceOnUse">
      <path
         id="path40451"
         d="m 0,6094.49 2834.65,0 L 2834.65,0 0,0 0,6094.49 z"
         inkscape:connector-curvature="0" />
    </clipPath>
    <clipPath
       id="clipPath40397"
       clipPathUnits="userSpaceOnUse">
      <path
         id="path40399"
         d="m 0,6094.49 2834.65,0 L 2834.65,0 0,0 0,6094.49 z"
         inkscape:connector-curvature="0" />
    </clipPath>
    <clipPath
       id="clipPath38577"
       clipPathUnits="userSpaceOnUse">
      <path
         id="path38579"
         d="m 697.507,3428.63 1273.063,0 0,-1465.38 -1273.063,0 0,1465.38 z"
         inkscape:connector-curvature="0" />
    </clipPath>
    <clipPath
       id="clipPath33841"
       clipPathUnits="userSpaceOnUse">
      <path
         id="path33843"
         d="m 724.209,4419.81 1703.091,0 0,-1012.55 -1703.091,0 0,1012.55 z"
         inkscape:connector-curvature="0" />
    </clipPath>
    <clipPath
       id="clipPath10135"
       clipPathUnits="userSpaceOnUse">
      <path
         id="path10137"
         d="m 1476.96,3343.35 1061.56,0 0,-1258.13 -1061.56,0 0,1258.13 z"
         inkscape:connector-curvature="0" />
    </clipPath>
    <clipPath
       id="clipPath9887"
       clipPathUnits="userSpaceOnUse">
      <path
         id="path9889"
         d="m 0,6094.49 2834.65,0 L 2834.65,0 0,0 0,6094.49 z"
         inkscape:connector-curvature="0" />
    </clipPath>
    <clipPath
       id="clipPath2999"
       clipPathUnits="userSpaceOnUse">
      <path
         id="path3001"
         d="m 0,6094.49 2834.65,0 L 2834.65,0 0,0 0,6094.49 z"
         inkscape:connector-curvature="0" />
    </clipPath>
  </defs>
  <sodipodi:namedview
     id="base"
     pagecolor="#ffffff"
     bordercolor="#666666"
     borderopacity="1.0"
     inkscape:pageopacity="0.0"
     inkscape:pageshadow="2"
     inkscape:zoom="15.839192"
     inkscape:cx="39.308959"
     inkscape:cy="16.831404"
     inkscape:document-units="px"
     inkscape:current-layer="layer1"
     showgrid="false"
     inkscape:window-width="1920"
     inkscape:window-height="1018"
     inkscape:window-x="-8"
     inkscape:window-y="-8"
     inkscape:window-maximized="1" />
  <metadata
     id="metadata7">
    <rdf:RDF>
      <cc:Work
         rdf:about="">
        <dc:format>image/svg+xml</dc:format>
        <dc:type
           rdf:resource="http://purl.org/dc/dcmitype/StillImage" />
        <dc:title></dc:title>
      </cc:Work>
    </rdf:RDF>
  </metadata>
  <g
     inkscape:label="Layer 1"
     inkscape:groupmode="layer"
     id="layer1"
     transform="translate(0,-1022.3622)">
    <g
       id="g40393"
       transform="matrix(0.1722856,0,0,-0.17136443,-338.39956,1557.5774)"
       style="fill:#ffffff">
      <g
         id="g40395"
         clip-path="url(#clipPath40397)"
         style="fill:#ffffff">
        <g
           id="g40401"
           transform="translate(2053.9453,2956.7109)"
           style="fill:#ffffff">
          <path
             inkscape:connector-curvature="0"
             d="m 0,0 c 0,2.188 -1.631,3.245 -4.773,3.245 l -3.17,0 0,-6.586 3.17,0 C -1.631,-3.341 0,-2.213 0,0 m -1.238,10.725 c 0,1.211 -0.393,2.014 -1.237,2.458 -0.789,0.422 -2.062,0.564 -3.843,0.564 l -1.625,0 0,-6.133 1.67,0 c 1.781,0 3.103,0.198 3.798,0.599 0.844,0.472 1.237,1.268 1.237,2.512 M 7.807,-0.371 C 7.807,-2.542 7.029,-4.348 5.48,-5.61 4.061,-6.987 1.943,-7.648 -0.854,-7.648 l -14.916,0 0,25.798 12.506,0 c 1.633,0 3.012,-0.235 4.114,-0.488 1.246,-0.354 2.232,-0.739 3.021,-1.302 0.725,-0.55 1.244,-1.146 1.609,-1.861 0.321,-0.752 0.518,-1.524 0.518,-2.398 0,-0.94 -0.197,-1.797 -0.574,-2.62 C 5.082,8.685 4.596,8.037 4.094,7.505 3.479,7.015 2.951,6.622 2.43,6.39 4.145,5.714 5.48,4.79 6.447,3.696 7.377,2.66 7.807,1.314 7.807,-0.371"
             style="fill:#ffffff;fill-opacity:1;fill-rule:nonzero;stroke:none"
             id="path40403" />
        </g>
        <g
           id="g40405"
           transform="translate(2082.3105,2967.0146)"
           style="fill:#ffffff">
          <path
             inkscape:connector-curvature="0"
             d="m 0,0 -2.48,-6.748 c -1.073,0.939 -2.061,1.471 -3.133,1.471 -0.918,0 -1.76,-0.383 -2.401,-1.006 -0.703,-0.627 -1.39,-1.833 -2.006,-3.539 l 0,-8.13 -6.687,0 0,18.901 6.687,0 0,-4.567 c 0.434,1.153 1.157,2.216 2.268,3.311 1.033,1.054 2.248,1.649 3.705,1.649 0.799,0 1.399,-0.117 1.979,-0.393 C -1.502,0.732 -0.84,0.421 0,0"
             style="fill:#ffffff;fill-opacity:1;fill-rule:nonzero;stroke:none"
             id="path40407" />
        </g>
        <g
           id="g40409"
           transform="translate(2094.1875,2953.6787)"
           style="fill:#ffffff">
          <path
             inkscape:connector-curvature="0"
             d="M 0,0 0,4.435 C -1.582,3.768 -2.748,3.247 -3.42,2.661 -4.207,2.102 -4.535,1.46 -4.535,0.586 c 0,-0.551 0.183,-1.093 0.56,-1.448 0.319,-0.359 0.758,-0.472 1.227,-0.472 0.486,0 0.857,0.113 1.387,0.383 C -0.879,-0.738 -0.437,-0.408 0,0 M 9.313,-3.639 C 8.336,-3.981 7.463,-4.396 6.639,-4.616 5.738,-4.82 4.807,-5.007 3.635,-5.007 c -1.115,0 -1.858,0.241 -2.303,0.611 -0.449,0.441 -0.791,0.894 -0.916,1.392 -0.723,-0.564 -1.551,-0.977 -2.43,-1.443 -0.873,-0.319 -2,-0.56 -3.465,-0.56 -1.421,0 -2.466,0.32 -3.341,0.808 -0.815,0.435 -1.428,1.038 -1.768,1.734 -0.351,0.769 -0.494,1.514 -0.494,2.314 0,1.149 0.219,2.105 0.834,2.812 0.613,0.755 1.428,1.432 2.41,1.982 0.938,0.437 2.285,0.919 3.904,1.417 1.002,0.324 1.672,0.528 2.11,0.669 0.463,0.212 0.877,0.272 1.094,0.388 0.246,0.082 0.496,0.195 0.73,0.344 0,0.902 -0.166,1.602 -0.514,2.152 -0.365,0.458 -1.218,0.783 -2.373,0.783 -1.498,0 -2.922,-0.325 -4.107,-0.974 -1.258,-0.676 -2.438,-1.457 -3.518,-2.481 l 0,5.095 c 0.877,0.655 1.793,1.105 2.75,1.468 0.922,0.421 1.953,0.689 2.989,0.861 1.064,0.196 2.113,0.313 3.289,0.313 2.687,0 4.681,-0.595 6.111,-1.649 1.361,-1.008 2.092,-2.492 2.092,-4.283 l 0,-7.359 c 0,-0.731 0.056,-1.283 0.156,-1.538 0.187,-0.36 0.428,-0.505 0.766,-0.505 0.414,0 0.978,0.149 1.672,0.505 l 0,-3.488 z"
             style="fill:#ffffff;fill-opacity:1;fill-rule:nonzero;stroke:none"
             id="path40411" />
        </g>
        <g
           id="g40413"
           transform="translate(2120.4609,2954.5654)"
           style="fill:#ffffff">
          <path
             inkscape:connector-curvature="0"
             d="m 0,0 c 0,-1.749 -0.686,-3.159 -1.92,-4.212 -1.307,-1.122 -3.209,-1.682 -5.699,-1.682 -1.373,0 -2.664,0.187 -3.736,0.437 -1.088,0.214 -2.268,0.615 -3.557,1.106 l 0,4.784 c 1.139,-0.734 2.109,-1.216 2.932,-1.471 0.814,-0.359 1.744,-0.505 2.769,-0.505 1.688,0 2.453,0.408 2.453,1.313 0,0.341 -0.084,0.581 -0.367,0.803 -0.258,0.306 -0.646,0.584 -1.236,0.866 -0.592,0.321 -1.397,0.641 -2.383,1.09 -1.258,0.6 -2.311,1.25 -3.151,2.201 -0.937,0.899 -1.357,2.059 -1.357,3.318 0,0.934 0.283,1.833 0.873,2.782 0.606,0.857 1.484,1.547 2.604,2.04 1.179,0.609 2.564,0.921 4.252,0.921 0.386,0 0.955,-0.022 1.507,-0.117 0.645,0 1.407,-0.254 2.299,-0.478 0.928,-0.158 1.838,-0.579 2.697,-0.942 l 0,-4.649 C -1.445,7.859 -1.762,8 -1.977,8.176 -2.291,8.366 -2.6,8.535 -3.086,8.768 -3.465,8.934 -4.029,9.114 -4.707,9.264 -5.244,9.358 -5.859,9.51 -6.535,9.51 -7.256,9.51 -7.822,9.309 -8.094,9.034 -8.361,8.768 -8.5,8.468 -8.5,8.135 -8.5,7.859 -8.361,7.55 -8.094,7.301 -7.822,7.024 -7.125,6.687 -6.061,6.312 -4.609,5.771 -3.34,5.173 -2.518,4.508 -1.641,3.888 -0.986,3.255 -0.604,2.529 -0.221,1.871 0,0.989 0,0"
             style="fill:#ffffff;fill-opacity:1;fill-rule:nonzero;stroke:none"
             id="path40415" />
        </g>
        <path
           inkscape:connector-curvature="0"
           d="m 2131.096,2949.063 -6.697,0 0,18.901 6.697,0 0,-18.901 z m -0.52,23.308 c 0,-0.779 -0.271,-1.433 -0.797,-1.971 -0.576,-0.582 -1.271,-0.875 -2.008,-0.875 -0.539,0 -1.033,0.161 -1.433,0.413 -0.442,0.193 -0.809,0.52 -1.109,1 -0.135,0.44 -0.303,0.854 -0.303,1.433 0,0.761 0.26,1.405 0.851,2.002 0.502,0.524 1.172,0.737 1.994,0.737 0.737,0 1.432,-0.213 2.008,-0.737 0.526,-0.597 0.797,-1.241 0.797,-2.002"
           style="fill:#ffffff;fill-opacity:1;fill-rule:nonzero;stroke:none"
           id="path40417" />
        <path
           inkscape:connector-curvature="0"
           d="m 2142.754,2949.063 -6.693,0 0,25.799 6.693,0 0,-25.799 z"
           style="fill:#ffffff;fill-opacity:1;fill-rule:nonzero;stroke:none"
           id="path40419" />
        <g
           id="g40421"
           transform="translate(2191.3867,3123.0322)"
           style="fill:#ffffff">
          <path
             inkscape:connector-curvature="0"
             d="m 0,0 2.619,-15.668 -9.078,-17.384 c 0,0 -3.516,7.391 -9.383,11.407 -4.857,3.454 -8.082,4.248 -13.074,3.25 -6.291,-1.334 -13.615,-9.022 -16.793,-18.441 -3.752,-11.322 -3.801,-16.761 -3.939,-21.805 -0.254,-8.027 1.066,-12.796 1.066,-12.796 0,0 -5.555,10.24 -5.529,25.256 0.048,10.708 1.785,20.363 6.713,29.947 4.343,8.443 10.834,13.451 16.564,14.105 5.887,0.605 10.648,-2.308 14.25,-5.385 3.754,-3.257 7.639,-10.386 7.639,-10.386 L 0,0 z"
             style="fill:#ffffff;fill-opacity:1;fill-rule:nonzero;stroke:none"
             id="path40423" />
        </g>
        <g
           id="g40425"
           transform="translate(2192.5586,3034.5068)"
           style="fill:#ffffff">
          <path
             inkscape:connector-curvature="0"
             d="m 0,0 c 0,0 -4.098,-7.176 -6.523,-9.936 -2.495,-2.799 -7.022,-7.636 -12.627,-10.119 -5.5,-2.456 -8.368,-2.874 -13.866,-2.331 -5.451,0.466 -10.529,3.65 -12.371,4.969 -1.779,1.343 -6.336,5.21 -8.867,8.846 -2.625,3.644 -6.601,10.959 -6.601,10.959 0,0 2.167,-7.352 3.677,-10.461 0.809,-1.693 3.221,-7.185 6.797,-11.902 3.279,-4.429 9.678,-12.032 19.328,-13.705 9.721,-1.791 16.354,2.621 18.018,3.61 1.687,1.12 5.146,4.023 7.367,6.351 2.268,2.487 4.424,5.565 5.668,7.489 0.877,1.357 2.324,4.166 2.324,4.166 L 0,0 z"
             style="fill:#ffffff;fill-opacity:1;fill-rule:nonzero;stroke:none"
             id="path40427" />
        </g>
        <g
           id="g40429"
           transform="translate(2024.9805,3122.3516)"
           style="fill:#ffffff">
          <path
             inkscape:connector-curvature="0"
             d="M 0,0 21.982,-74.62 43.908,0 59.775,0 23.479,-122.533 l -1.497,0 -22.75,75.922 -22.607,-75.922 -1.518,0 L -61.234,0 -45.379,0 -23.375,-74.62 -8.613,-24.34 -15.82,0 0,0 z"
             style="fill:#ffffff;fill-opacity:1;fill-rule:nonzero;stroke:none"
             id="path40431" />
        </g>
        <g
           id="g40433"
           transform="translate(2129.875,3039.1572)"
           style="fill:#ffffff">
          <path
             inkscape:connector-curvature="0"
             d="m 0,0 c 0,-11.092 -2.926,-20.45 -8.893,-28 -5.814,-7.548 -13.502,-11.339 -22.908,-11.339 -7.033,0 -13.176,2.228 -18.443,6.658 -5.227,4.548 -9.088,10.614 -11.629,18.28 l 12.412,5.148 c 1.815,-4.652 4.195,-8.256 7.15,-10.962 2.967,-2.649 6.53,-4.03 10.51,-4.03 4.283,0 7.856,2.38 10.785,7.174 2.954,4.723 4.405,10.323 4.405,17.071 0,7.395 -1.641,13.01 -4.721,17.053 -3.609,4.695 -9.326,7.158 -17.139,7.158 l -6.037,0 0,7.253 21.199,36.613 -25.578,0 -7.043,-12.078 -4.558,0 0,27.195 58.939,0 0,-7.367 -22.342,-38.623 C -15.982,34.67 -10.1,30.11 -6.059,23.425 -2.002,16.744 0,8.981 0,0"
             style="fill:#ffffff;fill-opacity:1;fill-rule:nonzero;stroke:none"
             id="path40435" />
        </g>
        <g
           id="g40437"
           transform="translate(2207.5898,3119.4199)"
           style="fill:#ffffff">
          <path
             inkscape:connector-curvature="0"
             d="m 0,0 c 1.604,0 2.301,-0.449 2.301,-1.561 0,-1.019 -0.697,-1.4 -2.248,-1.4 l -1.389,0 0,2.961 L 0,0 z m 0.275,1.1 -3.312,0 0,-8.923 1.701,0 0,3.81 1.611,0 1.795,-3.81 1.864,0 -1.914,4.039 c 1.293,0.306 2.035,1.119 2.035,2.372 0,1.679 -1.274,2.512 -3.78,2.512 m 6.627,-4.617 c 0,-1.927 -0.72,-3.528 -2.004,-4.798 -1.361,-1.308 -3.013,-2.001 -4.845,-2.001 -1.764,0 -3.463,0.783 -4.74,2.001 -1.315,1.307 -1.987,3.046 -1.987,4.803 0,1.781 0.727,3.512 2.061,4.852 1.203,1.253 2.902,1.912 4.746,1.912 1.887,0 3.529,-0.659 4.804,-2.015 C 6.225,0 6.902,-1.701 6.902,-3.517 M 0.053,4.317 c -2.026,0 -3.977,-0.727 -5.362,-2.206 -1.511,-1.536 -2.396,-3.523 -2.396,-5.623 0,-2.065 0.824,-3.936 2.316,-5.503 1.465,-1.499 3.416,-2.319 5.442,-2.319 2.054,0 4.049,0.82 5.615,2.319 1.465,1.455 2.242,3.397 2.242,5.503 0,2.1 -0.82,4.087 -2.223,5.493 C 4.189,3.484 2.191,4.317 0.053,4.317"
             style="fill:#ffffff;fill-opacity:1;fill-rule:nonzero;stroke:none"
             id="path40439" />
        </g>
      </g>
    </g>
    <g
       id="g78709"
       transform="matrix(0.13256124,0,0,0.13256124,26.835816,898.83557)">
      <g
         style="fill:#000000"
         transform="matrix(1.25,0,0,-1.25,379.12288,610.37342)"
         id="g40453">
        <path
           id="path40455"
           style="fill:#000000;fill-opacity:1;fill-rule:nonzero;stroke:none"
           d="m 0,0 0,6.454 -18.187,0 0,-121.203 18.187,0 0,98.637 c 2.648,3.259 5.369,5.091 8.164,5.51 3.07,0.425 5.656,-0.273 7.738,-2.124 l 0,20.325 C 9.346,7.599 4.046,5.071 0,0"
           inkscape:connector-curvature="0" />
      </g>
      <g
         style="fill:#000000"
         transform="matrix(1.25,0,0,-1.25,321.53375,714.39742)"
         id="g40457">
        <path
           id="path40459"
           style="fill:#000000;fill-opacity:1;fill-rule:nonzero;stroke:none"
           d="m 0,0 0,-7.005 c 0,-2.27 -0.745,-4.11 -2.241,-5.52 -1.9,-1.837 -4.341,-2.561 -7.335,-2.12 -2.614,0.412 -5.638,2.299 -7.732,5.752 l 0,75.8 c 2.441,3.244 5.012,5.088 7.732,5.511 2.994,0.436 5.435,-0.272 7.335,-2.106 C -0.745,68.89 0,67.043 0,64.77 L 0,0 z m -37.292,-22.295 c -5.783,0 -10.467,4.688 -10.467,10.472 0,5.789 4.684,10.456 10.467,10.456 5.79,0 10.475,-4.667 10.475,-10.456 0,-5.784 -4.685,-10.472 -10.475,-10.472 M 9.984,87.222 c -3.07,2.114 -6.909,3.175 -11.545,3.175 -6.571,0 -11.819,-2.455 -15.747,-7.344 l 0,36.922 -18.396,0 0,-104.99 c -0.14,-3.024 -1.336,-5.731 -4.711,-6.667 -9.77,-1.494 -17.253,-9.932 -17.253,-20.141 0,-11.255 9.12,-20.409 20.393,-20.409 5.037,0 9.645,1.862 13.197,4.878 l 0.015,0 c 0.057,0.051 0.12,0.106 0.167,0.155 0.506,0.444 1,0.919 1.45,1.404 0.707,0.577 1.534,1.065 2.493,1.065 1.234,0 2.127,-0.21 3.145,-1.116 3.981,-4.491 9.083,-6.745 15.247,-6.745 0.252,0 0.49,0.044 0.741,0.044 4.379,0.084 8.053,1.125 11.002,3.157 3.102,2.126 5.228,4.471 6.418,7.084 1.158,2.479 1.733,6.667 1.788,12.562 0.009,0.26 0.009,0.535 0.009,0.833 l 0,75.638 c 0,6.338 -0.628,10.812 -1.89,13.423 -1.258,2.613 -3.434,4.974 -6.523,7.072"
           inkscape:connector-curvature="0" />
      </g>
      <g
         style="fill:#000000"
         transform="matrix(1.25,0,0,-1.25,-171.645,601.9768)"
         id="g40461">
        <path
           id="path40463"
           style="fill:#000000;fill-opacity:1;fill-rule:nonzero;stroke:none"
           d="m 0,0 c -7.517,0 -13.933,-2.651 -19.26,-7.918 -5.317,-5.301 -7.978,-11.681 -7.978,-19.165 l 0,-68.752 c 0,-7.5 2.725,-13.875 8.161,-19.16 5.447,-5.288 11.901,-7.936 19.394,-7.936 7.492,0 13.858,2.658 19.079,7.963 5.22,5.301 7.832,11.679 7.832,19.17 l 0,6.35 -18.225,0 0,-6.862 c 0,-2.441 -0.878,-4.559 -2.64,-6.336 -1.77,-1.8 -3.857,-2.695 -6.255,-2.695 -2.549,0 -4.699,0.855 -6.47,2.551 -1.759,1.705 -2.634,3.834 -2.634,6.373 l 0,69.897 c 0,2.565 0.875,4.673 2.634,6.379 1.771,1.697 3.921,2.549 6.47,2.549 2.398,0 4.485,-0.895 6.255,-2.656 1.762,-1.769 2.64,-3.837 2.64,-6.229 l 0,-43.457 18.225,0 0,42.89 c 0,7.474 -2.658,13.841 -7.977,19.126 C 13.94,-2.651 7.522,0 0,0"
           inkscape:connector-curvature="0" />
      </g>
      <g
         style="fill:#000000"
         transform="matrix(1.25,0,0,-1.25,-79.852375,677.48817)"
         id="g40465">
        <path
           id="path40467"
           style="fill:#000000;fill-opacity:1;fill-rule:nonzero;stroke:none"
           d="m 0,0 -18.007,0 0,33.933 c 0,2.391 0.882,4.459 2.64,6.228 1.769,1.761 3.858,2.656 6.256,2.656 2.549,0 4.7,-0.843 6.47,-2.548 C -0.881,38.59 0,36.464 0,33.933 L 0,0 z m -9.004,60.409 c -7.522,0 -13.933,-2.651 -19.249,-7.918 -5.329,-5.301 -7.99,-11.68 -7.99,-19.165 l 0,-68.752 c 0,-7.63 2.688,-14.046 8.053,-19.262 5.372,-5.209 11.874,-7.833 19.502,-7.833 7.491,0 13.844,2.657 19.08,7.962 5.236,5.301 7.842,11.679 7.842,19.17 l 0,6.35 -18.234,0 0,-6.861 c 0,-2.591 -0.881,-4.743 -2.641,-6.457 -1.77,-1.72 -3.921,-2.575 -6.47,-2.575 -2.398,0 -4.487,0.895 -6.256,2.68 -1.758,1.77 -2.64,3.867 -2.64,6.3 l 0,18.998 36.241,0 0,50.296 c 0,7.497 -2.661,13.859 -7.988,19.149 -5.316,5.267 -11.735,7.918 -19.25,7.918"
           inkscape:connector-curvature="0" />
      </g>
      <g
         style="fill:#000000"
         transform="matrix(1.25,0,0,-1.25,48.391,722.52242)"
         id="g40469">
        <path
           id="path40471"
           style="fill:#000000;fill-opacity:1;fill-rule:nonzero;stroke:none"
           d="m 0,0 c 0,-2.539 -0.879,-4.669 -2.625,-6.373 -1.741,-1.677 -3.883,-2.531 -6.387,-2.531 -2.523,0 -4.685,0.854 -6.509,2.531 -1.814,1.704 -2.704,3.834 -2.704,6.373 l 0,96.437 -18.24,0 0,-96.437 c 0,-2.539 -0.881,-4.669 -2.65,-6.373 -1.773,-1.677 -3.925,-2.531 -6.455,-2.531 -2.404,0 -4.486,0.883 -6.261,2.652 -1.771,1.772 -2.651,3.859 -2.651,6.252 l 0,96.437 -18.225,0 0,-95.835 c 0,-7.5 2.715,-13.875 8.161,-19.161 5.435,-5.288 11.904,-7.935 19.4,-7.935 3.379,0 6.953,0.955 10.692,2.854 3.75,1.907 6.175,4.359 7.317,7.325 1.127,-2.966 3.756,-5.447 7.849,-7.427 3.52,-1.833 7.06,-2.752 10.592,-2.752 7.49,0 13.84,2.647 19.078,7.935 5.221,5.286 7.843,11.661 7.843,19.161 l 0,95.835 L 0,96.437 0,0 z"
           inkscape:connector-curvature="0" />
      </g>
      <g
         style="fill:#000000"
         transform="matrix(1.25,0,0,-1.25,130.24288,677.48817)"
         id="g40473">
        <path
           id="path40475"
           style="fill:#000000;fill-opacity:1;fill-rule:nonzero;stroke:none"
           d="m 0,0 -18.021,0 0,33.933 c 0,2.391 0.879,4.459 2.654,6.228 1.77,1.761 3.843,2.656 6.257,2.656 2.543,0 4.701,-0.843 6.47,-2.548 C -0.88,38.59 0,36.464 0,33.933 L 0,0 z m -9.02,60.409 c -7.497,0 -13.933,-2.651 -19.248,-7.918 -5.312,-5.301 -7.977,-11.68 -7.977,-19.165 l 0,-68.752 c 0,-7.63 2.68,-14.046 8.057,-19.262 5.367,-5.209 11.873,-7.833 19.503,-7.833 7.489,0 13.841,2.657 19.072,7.962 5.226,5.301 7.838,11.679 7.838,19.17 l 0,6.35 -18.225,0 0,-6.861 c 0,-2.591 -0.88,-4.743 -2.64,-6.457 -1.769,-1.72 -3.927,-2.575 -6.47,-2.575 -2.414,0 -4.487,0.895 -6.257,2.68 -1.775,1.77 -2.654,3.867 -2.654,6.3 l 0,18.998 36.246,0 0,50.296 c 0,7.497 -2.649,13.859 -7.977,19.149 -5.317,5.267 -11.734,7.918 -19.268,7.918"
           inkscape:connector-curvature="0" />
      </g>
      <g
         style="fill:#000000"
         transform="matrix(1.25,0,0,-1.25,211.97137,723.31342)"
         id="g40477">
        <path
           id="path40479"
           style="fill:#000000;fill-opacity:1;fill-rule:nonzero;stroke:none"
           d="m 0,0 c 0,-2.69 -0.97,-4.738 -2.9,-6.143 -1.928,-1.422 -4.212,-1.916 -6.835,-1.498 -2.752,0.435 -5.383,2.276 -7.86,5.526 l 0,75.866 c 2.477,3.259 5.108,5.094 7.86,5.517 2.623,0.429 4.907,-0.086 6.835,-1.487 C -0.97,76.36 0,74.317 0,71.627 L 0,0 z m 9.775,94 c -3.082,2.11 -6.942,3.16 -11.549,3.16 -6.582,0 -11.836,-2.435 -15.755,-7.344 l 0,36.944 -0.147,0 -18.226,0 -0.016,0 0,-104.99 c -0.01,-0.07 0.016,-0.176 0.016,-0.25 l 0,-46.317 18.226,0 0,6.365 c 1.679,-1.977 3.492,-3.55 5.46,-4.703 2.417,-1.428 5.091,-2.271 8.053,-2.543 0.092,-0.019 0.201,-0.026 0.281,-0.045 0.692,-0.054 1.388,-0.086 2.108,-0.086 0.766,0 1.422,0.032 1.985,0.086 3.831,0.256 7.082,1.274 9.759,3.098 3.085,2.113 5.225,4.473 6.417,7.099 1.131,2.462 1.721,6.669 1.776,12.547 0.01,0.272 0.01,0.538 0.01,0.836 l 0,75.647 c 0,6.332 -0.629,10.817 -1.888,13.415 -1.259,2.602 -3.43,4.973 -6.51,7.081"
           inkscape:connector-curvature="0" />
      </g>
      <g
         style="fill:#000000"
         transform="matrix(1.25,0,0,-1.25,740.40337,714.81492)"
         id="g40481">
        <path
           id="path40483"
           style="fill:#000000;fill-opacity:1;fill-rule:nonzero;stroke:none"
           d="m 0,0 0,-6.998 c 0,-2.271 -0.75,-4.114 -2.247,-5.539 -1.929,-1.838 -4.352,-2.57 -7.341,-2.133 -2.643,0.417 -5.71,2.328 -7.785,5.762 l 0,76.016 c 2.442,3.29 5.053,5.112 7.785,5.554 2.989,0.428 5.412,-0.32 7.341,-2.131 C -0.75,69.083 0,67.281 0,64.963 L 0,0 z m -37.406,-22.315 c -5.818,0 -10.47,4.685 -10.47,10.493 0,5.775 4.652,10.475 10.47,10.475 5.82,0 10.528,-4.7 10.528,-10.475 0,-5.808 -4.708,-10.493 -10.528,-10.493 M 10.031,87.49 c -3.124,2.092 -6.972,3.177 -11.572,3.177 -6.636,0 -11.877,-2.453 -15.832,-7.372 l 0,37.014 -18.456,0 0,-105.25 c -0.129,-3.038 -1.326,-5.76 -4.68,-6.727 -9.819,-1.476 -17.339,-9.937 -17.339,-20.154 0,-11.33 9.15,-20.453 20.442,-20.453 5.058,0 9.671,1.862 13.254,4.871 l 0,-0.026 c 0.058,0.067 0.118,0.12 0.161,0.21 0.51,0.425 1.009,0.91 1.45,1.373 0.729,0.615 1.576,1.082 2.515,1.082 1.236,0 2.16,-0.227 3.164,-1.104 3.99,-4.532 9.097,-6.791 15.321,-6.791 0.189,0 0.443,0.059 0.694,0.059 4.399,0.072 8.077,1.105 11.062,3.153 3.08,2.104 5.223,4.507 6.415,7.133 1.145,2.455 1.722,6.691 1.81,12.555 l 0,0.852 0,75.836 c 0,6.342 -0.665,10.832 -1.908,13.472 -1.255,2.61 -3.459,4.989 -6.501,7.09"
           inkscape:connector-curvature="0" />
      </g>
      <g
         style="fill:#000000"
         transform="matrix(1.25,0,0,-1.25,798.12487,610.44842)"
         id="g40485">
        <path
           id="path40487"
           style="fill:#000000;fill-opacity:1;fill-rule:nonzero;stroke:none"
           d="m 0,0 0,6.442 -18.231,0 0,-121.533 18.231,0 0,98.906 c 2.637,3.267 5.375,5.083 8.204,5.531 3.03,0.41 5.64,-0.289 7.73,-2.127 l 0,20.342 C 9.389,7.561 4.037,5.083 0,0"
           inkscape:connector-curvature="0" />
      </g>
      <g
         style="fill:#000000"
         transform="matrix(1.25,0,0,-1.25,532.67575,754.2228)"
         id="g40489">
        <path
           id="path40491"
           style="fill:#000000;fill-opacity:1;fill-rule:nonzero;stroke:none"
           d="m 0,0 -18.174,0 0,96.055 c 0,2.237 -0.75,4.074 -2.243,5.467 -1.927,1.824 -4.391,2.52 -7.362,2.095 -2.74,-0.386 -5.322,-2.235 -7.756,-5.46 l 0,-98.157 -18.189,0 0,120.67 18.189,0 0,-6.505 c 4.028,4.909 9.277,7.38 15.685,7.38 4.571,0 8.421,-1.086 11.489,-3.173 3.073,-2.141 5.215,-4.469 6.484,-7.078 C -0.63,108.68 0,104.207 0,97.905 L 0,0 z"
           inkscape:connector-curvature="0" />
      </g>
      <path
         id="path40493"
         style="fill:#000000;fill-opacity:1;fill-rule:nonzero;stroke:none"
         d="m 571.88525,587.8773 -22.75,0 0,-22.21375 22.75,0 0,22.21375 z m 0,166.345 -22.75,0 0,-150.8375 22.75,0 0,150.8375 z"
         inkscape:connector-curvature="0" />
      <g
         style="fill:#000000"
         transform="matrix(1.25,0,0,-1.25,652.96625,721.32367)"
         id="g40495">
        <path
           id="path40497"
           style="fill:#000000;fill-opacity:1;fill-rule:nonzero;stroke:none"
           d="m 0,0 c 0,-7.492 -2.57,-13.911 -7.748,-19.174 -5.218,-5.344 -11.529,-7.974 -18.989,-7.974 -7.421,0 -13.84,2.63 -19.274,7.906 -5.369,5.263 -8.092,11.593 -8.092,19.039 l 0,68.469 c 0,7.404 2.632,13.767 7.932,19.036 5.286,5.261 11.636,7.924 19.142,7.924 7.432,0 13.837,-2.702 19.129,-7.924 C -2.618,82.012 0,75.655 0,68.183 l 0,-42.777 -18.171,0 0,43.492 c 0,2.423 -0.851,4.5 -2.59,6.294 -1.769,1.783 -3.818,2.643 -6.168,2.643 -2.506,0 -4.646,-0.86 -6.388,-2.643 -1.75,-1.794 -2.597,-3.871 -2.597,-6.294 l 0,-69.752 c 0,-2.417 0.847,-4.515 2.597,-6.281 1.742,-1.767 3.882,-2.63 6.388,-2.63 2.35,0 4.399,0.886 6.168,2.673 1.739,1.806 2.59,3.978 2.59,6.442 l 0,7.003 L 0,6.353 0,0 z"
           inkscape:connector-curvature="0" />
      </g>
      <g
         style="fill:#000000"
         transform="matrix(1.25,0,0,-1.25,993.25,720.14692)"
         id="g40499">
        <path
           id="path40501"
           style="fill:#000000;fill-opacity:1;fill-rule:nonzero;stroke:none"
           d="m 0,0 c 0,-7.496 -2.602,-13.887 -7.795,-19.19 -5.197,-5.29 -11.527,-7.934 -18.967,-7.934 -7.435,0 -13.851,2.627 -19.256,7.878 -5.421,5.232 -8.125,11.572 -8.125,18.976 l 0,68.197 c 0,7.418 2.651,13.745 7.926,18.988 5.285,5.238 11.682,7.87 19.143,7.87 7.476,0 13.847,-2.632 19.142,-7.87 C -2.643,81.672 0,75.345 0,67.927 l 0,-42.586 -18.189,0 0,43.238 c 0,2.378 -0.873,4.455 -2.623,6.205 -1.721,1.766 -3.776,2.635 -6.151,2.635 -2.506,0 -4.631,-0.879 -6.381,-2.648 -1.742,-1.737 -2.601,-3.825 -2.601,-6.215 l 0,-69.458 c 0,-2.405 0.859,-4.474 2.601,-6.232 1.75,-1.757 3.875,-2.63 6.381,-2.63 2.375,0 4.43,0.897 6.151,2.704 1.75,1.814 2.623,3.966 2.623,6.447 l 0,6.957 L 0,6.344 0,0 z"
           inkscape:connector-curvature="0" />
      </g>
      <g
         style="fill:#000000"
         transform="matrix(1.25,0,0,-1.25,1052.0855,610.52042)"
         id="g40503">
        <path
           id="path40505"
           style="fill:#000000;fill-opacity:1;fill-rule:nonzero;stroke:none"
           d="m 0,0 0.045,0.027 0,-0.014 L 0,0 z m 0.045,-91.449 c -2.649,-3.231 -5.359,-5.065 -8.168,-5.476 -3.059,-0.438 -5.559,0.279 -7.51,2.098 -1.394,1.409 -2.084,3.233 -2.084,5.482 l 0,64.292 0,6.939 c 0,2.244 0.862,4.183 2.608,5.8 1.744,1.616 4.142,2.21 7.224,1.792 2.77,-0.422 5.418,-2.249 7.93,-5.484 l 0,-75.443 z m 0,98.121 0,-6.638 c -4.041,4.894 -9.354,7.345 -15.885,7.345 -4.597,0 -8.435,-1.039 -11.496,-3.15 -3.078,-2.096 -5.187,-4.45 -6.373,-7.039 -1.18,-2.574 -1.773,-6.996 -1.781,-13.232 l 0,-0.009 0,-75.239 c 0,-6.288 0.572,-10.752 1.781,-13.346 1.176,-2.596 3.295,-4.938 6.373,-7.052 3.055,-2.097 6.895,-3.137 11.49,-3.137 6.537,0 11.85,2.452 15.891,7.357 l 0,-12.329 c 0,-2.589 -0.873,-4.746 -2.604,-6.488 -1.752,-1.717 -3.878,-2.593 -6.388,-2.593 -2.502,0 -4.59,0.898 -6.272,2.659 -1.668,1.793 -2.498,3.89 -2.498,6.318 l -17.773,0 c 0,-7.171 2.558,-13.015 7.689,-17.523 5.135,-4.489 11.485,-6.751 19.069,-6.751 7.576,0 13.984,2.228 19.177,6.675 5.182,4.475 7.787,10.373 7.787,17.703 l 0,126.469 -18.187,0 z"
           inkscape:connector-curvature="0" />
      </g>
      <path
         id="path40507"
         style="fill:#000000;fill-opacity:1;fill-rule:nonzero;stroke:none"
         d="m 1090.1815,586.6998 22.7275,0 0,-22.22375 -22.7275,0 0,22.22375 z m 0,166.325 22.7275,0 0,-150.845 -22.7275,0 0,150.845 z"
         inkscape:connector-curvature="0" />
      <g
         style="fill:#000000"
         transform="matrix(1.25,0,0,-1.25,1211.043,605.10292)"
         id="g40509">
        <path
           id="path40511"
           style="fill:#000000;fill-opacity:1;fill-rule:nonzero;stroke:none"
           d="m 0,0 c -3.059,2.106 -6.875,3.157 -11.469,3.157 -6.527,0 -11.756,-2.432 -15.648,-7.307 l 0,36.689 -18.285,0 0,-104.315 c -0.149,-3.009 -1.332,-5.7 -4.666,-6.62 -9.721,-1.485 -17.17,-9.876 -17.17,-20.009 0,-11.195 9.07,-20.271 20.263,-20.271 5.016,0 9.588,1.819 13.137,4.842 l 0,-0.023 c 0.053,0.062 0.119,0.113 0.178,0.175 0.494,0.445 0.984,0.898 1.424,1.385 0.72,0.589 1.523,1.06 2.48,1.06 1.236,0 2.115,-0.222 3.137,-1.113 3.953,-4.451 9.002,-6.692 15.15,-6.692 0.254,0 0.481,0.026 0.717,0.046 4.354,0.079 8.006,1.098 10.957,3.12 3.066,2.11 5.182,4.449 6.377,7.048 1.133,2.454 1.699,6.627 1.772,12.462 0,0.281 0.009,0.547 0.009,0.839 l 0,75.161 c 0,6.306 -0.64,10.738 -1.894,13.332 C 5.217,-4.433 3.068,-2.093 0,0 m -46.975,-108.825 c -5.75,0 -10.4,4.665 -10.4,10.409 0,5.746 4.65,10.398 10.4,10.398 5.743,0 10.385,-4.652 10.385,-10.398 0,-5.744 -4.642,-10.409 -10.385,-10.409 m 37.045,22.161 0,-6.97 c 0,-2.244 -0.732,-4.076 -2.222,-5.491 -1.897,-1.811 -4.307,-2.524 -7.291,-2.1 -2.598,0.4 -5.621,2.273 -7.674,5.714 l 0,75.312 c 2.422,3.244 4.982,5.071 7.674,5.482 2.984,0.435 5.394,-0.267 7.291,-2.102 1.49,-1.404 2.222,-3.224 2.222,-5.496 l 0,-64.349 z"
           inkscape:connector-curvature="0" />
      </g>
      <g
         style="fill:#000000"
         transform="matrix(1.25,0,0,-1.25,1255.8501,610.06392)"
         id="g40513">
        <path
           id="path40515"
           style="fill:#000000;fill-opacity:1;fill-rule:nonzero;stroke:none"
           d="m 0,0 0,6.41 -18.076,0 0,-120.445 18.076,0 0,98.02 c 2.625,3.218 5.34,5.043 8.115,5.47 3.035,0.42 5.619,-0.276 7.686,-2.1 l 0,20.191 C 9.291,7.546 4.029,5.027 0,0"
           inkscape:connector-curvature="0" />
      </g>
      <g
         style="fill:#000000"
         transform="matrix(1.25,0,0,-1.25,898.74563,672.54442)"
         id="g40517">
        <path
           id="path40519"
           style="fill:#000000;fill-opacity:1;fill-rule:nonzero;stroke:none"
           d="m 0,0 c 0.143,0 0.312,-0.03 0.506,-0.097 -0.131,0.675 0,1.211 0.375,1.612 C 1.273,1.924 1.854,2.108 2.637,2.074 3.24,1.936 4.029,1.724 5.006,1.439 5.986,1.155 6.975,0.884 8,0.635 9.031,0.383 10.01,0.177 10.934,0.029 11.867,-0.119 12.592,-0.112 13.135,0.054 13.096,0.555 12.932,1.043 12.646,1.492 12.363,1.945 12.025,2.387 11.643,2.802 11.25,3.227 10.846,3.616 10.408,3.988 9.967,4.358 9.561,4.698 9.195,5.001 8.986,5.268 8.898,5.538 8.922,5.808 c 0.014,0.268 0.109,0.484 0.273,0.656 0.166,0.17 0.389,0.258 0.659,0.28 0.267,0.008 0.531,-0.077 0.806,-0.28 0.035,-0.03 0.274,-0.225 0.735,-0.581 0.447,-0.349 0.957,-0.786 1.507,-1.281 0.563,-0.518 1.11,-1.05 1.643,-1.619 0.533,-0.577 0.91,-1.117 1.103,-1.617 0.278,-0.601 0.409,-1.29 0.409,-2.039 0,-0.761 -0.352,-1.327 -1.057,-1.697 -0.672,-0.303 -1.348,-0.51 -2.014,-0.634 -0.683,-0.117 -1.361,-0.173 -2.021,-0.173 0.599,-0.608 1.127,-1.265 1.566,-1.994 0.434,-0.724 0.885,-1.506 1.352,-2.35 0.076,-0.338 0.062,-0.694 -0.022,-1.081 -0.082,-0.388 -0.209,-0.755 -0.396,-1.108 -0.184,-0.368 -0.436,-0.68 -0.711,-0.964 -0.287,-0.288 -0.619,-0.48 -0.981,-0.585 -0.847,-0.265 -1.96,-0.303 -3.341,-0.124 -1.375,0.189 -2.77,0.519 -4.155,1.018 -1.402,0.479 -2.691,1.074 -3.871,1.763 -1.179,0.689 -1.986,1.42 -2.418,2.196 -0.271,0.439 -0.547,0.861 -0.802,1.282 -0.278,0.426 -0.446,0.868 -0.508,1.339 -0.11,0.57 -0.094,1.092 0.047,1.567 0.134,0.464 0.367,0.881 0.709,1.237 0.332,0.356 0.726,0.615 1.164,0.784 C -0.977,-0.03 -0.498,0.034 0,0 M 9.705,-7.827 C 9.219,-6.982 8.609,-6.294 7.854,-5.746 7.096,-5.211 6.314,-4.719 5.486,-4.262 4.668,-3.81 3.859,-3.363 3.086,-2.93 2.311,-2.495 1.641,-1.932 1.061,-1.26 0.934,-1.699 0.605,-1.932 0.104,-1.963 l -0.44,-0.053 -0.463,-1.412 c 0.498,-0.774 1.164,-1.451 1.992,-2.017 0.821,-0.579 1.721,-1.051 2.678,-1.418 0.951,-0.371 1.943,-0.637 2.947,-0.81 1.018,-0.169 1.975,-0.214 2.887,-0.154"
           inkscape:connector-curvature="0" />
      </g>
      <g
         style="fill:#000000"
         transform="matrix(1.25,0,0,-1.25,897.99375,662.44005)"
         id="g40521">
        <path
           id="path40523"
           style="fill:#000000;fill-opacity:1;fill-rule:nonzero;stroke:none"
           d="M 0,0 C 0.602,0.062 1.207,0.12 1.82,0.176 2.43,0.22 3.051,0.22 3.688,0.141 2.57,0.79 1.518,1.472 0.5,2.19 -0.506,2.917 -1.537,3.721 -2.623,4.593 -2.959,4.96 -3.168,5.316 -3.26,5.654 c -0.08,0.333 -0.037,0.738 0.139,1.202 0.086,0.342 0.209,0.613 0.351,0.809 0.266,0.409 0.557,0.686 0.856,0.837 0.301,0.156 0.707,0.213 1.207,0.179 C 0.375,8.614 1.436,8.502 2.496,8.351 3.563,8.202 4.623,8.062 5.68,7.942 6.736,7.831 7.801,7.749 8.863,7.699 9.922,7.646 10.994,7.707 12.074,7.874 l 0.756,1.009 -1.066,3.382 c -0.131,0.332 -0.141,0.628 -0.028,0.88 0.116,0.256 0.289,0.439 0.485,0.535 0.201,0.097 0.435,0.11 0.711,0.043 0.261,-0.058 0.484,-0.246 0.648,-0.554 0.305,-0.703 0.623,-1.385 0.963,-2.042 0.328,-0.655 0.572,-1.303 0.697,-1.945 0.147,-0.64 0.094,-1.259 -0.125,-1.87 C 14.908,6.703 14.385,6.088 13.58,5.451 13.006,5.011 12.305,4.709 11.467,4.54 10.615,4.367 9.74,4.277 8.84,4.262 7.936,4.245 7.039,4.277 6.164,4.365 5.285,4.451 4.531,4.521 3.895,4.593 4.934,3.817 6.027,3.125 7.172,2.525 8.311,1.913 9.455,1.328 10.607,0.755 c 0.7,-0.373 1.418,-0.711 2.141,-1.014 0.723,-0.299 1.35,-0.756 1.893,-1.361 0.404,-0.671 0.474,-1.296 0.207,-1.861 -0.27,-0.577 -0.793,-0.917 -1.567,-1.008 -0.74,0 -1.535,0.069 -2.369,0.221 -0.848,0.149 -1.687,0.344 -2.533,0.58 -0.832,0.233 -1.662,0.477 -2.471,0.734 -0.801,0.252 -1.547,0.462 -2.22,0.627 l -0.049,0 C 3.074,-2.222 2.486,-2.159 1.895,-2.12 1.305,-2.095 0.68,-2.072 0,-2.072 c -0.268,0.1 -0.477,0.242 -0.629,0.429 -0.152,0.181 -0.234,0.379 -0.254,0.578 -0.012,0.198 0.043,0.399 0.176,0.588 0.137,0.182 0.332,0.322 0.605,0.428 L -0.102,0 0,0 z"
           inkscape:connector-curvature="0" />
      </g>
      <g
         style="fill:#000000"
         transform="matrix(1.25,0,0,-1.25,898.6895,639.28017)"
         id="g40525">
        <path
           id="path40527"
           style="fill:#000000;fill-opacity:1;fill-rule:nonzero;stroke:none"
           d="m 0,0 c 0.029,0 0.066,0 0.104,0.021 0.031,0.02 0.06,0.028 0.097,0.028 -0.832,1.816 -1.539,3.708 -2.092,5.677 -0.556,1.966 -1.062,3.906 -1.543,5.828 0,0.607 0.245,0.986 0.737,1.135 0.486,0.15 0.879,-0.044 1.181,-0.581 0.547,-1.279 1.084,-2.562 1.62,-3.859 C 0.645,6.949 1.229,5.667 1.873,4.382 2.541,4.829 3.303,5.007 4.145,4.945 4.988,4.87 5.793,4.72 6.561,4.487 7.209,4.285 7.891,3.996 8.6,3.627 9.33,3.258 10.018,2.821 10.68,2.318 11.336,1.813 11.928,1.243 12.445,0.621 12.969,0 13.346,-0.629 13.584,-1.267 c 0.166,-0.406 0.244,-0.848 0.244,-1.313 0,-0.475 0.041,-0.941 0.1,-1.411 -0.059,-0.371 -0.149,-0.663 -0.252,-0.857 -0.092,-0.203 -0.291,-0.443 -0.555,-0.708 -0.293,-0.167 -0.588,-0.375 -0.871,-0.608 -0.289,-0.232 -0.6,-0.408 -0.937,-0.503 -0.883,-0.272 -1.907,-0.295 -3.055,-0.075 -1.17,0.22 -2.334,0.575 -3.518,1.054 -1.174,0.494 -2.275,1.063 -3.303,1.724 -1.027,0.651 -1.835,1.281 -2.447,1.887 -0.607,0.676 -0.525,1.26 0.256,1.76 L 0,0 z M 3.832,-0.509 C 3.496,-1.216 3.025,-1.623 2.418,-1.725 3.594,-2.298 4.867,-2.694 6.209,-2.932 7.555,-3.171 8.871,-3.271 10.148,-3.236 10.084,-2.807 9.863,-2.364 9.518,-1.949 9.164,-1.525 8.756,-1.148 8.275,-0.817 7.814,-0.481 7.316,-0.177 6.812,0.096 6.316,0.363 5.877,0.583 5.506,0.753 5.002,0.98 4.551,1.124 4.145,1.154 l -0.102,0 C 3.975,0.883 3.939,0.598 3.969,0.294 3.984,0 3.936,-0.274 3.832,-0.509"
           inkscape:connector-curvature="0" />
      </g>
      <g
         style="fill:#000000"
         transform="matrix(1.25,0,0,-1.25,907.962,628.68755)"
         id="g40529">
        <path
           id="path40531"
           style="fill:#000000;fill-opacity:1;fill-rule:nonzero;stroke:none"
           d="M 0,0 C 0.223,-0.202 0.371,-0.419 0.436,-0.65 0.479,-0.887 0.449,-1.096 0.355,-1.282 0.25,-1.472 0.088,-1.621 -0.127,-1.739 -0.342,-1.857 -0.607,-1.88 -0.91,-1.82 c -1.145,0.475 -2.311,1.123 -3.51,1.947 -1.195,0.825 -2.348,1.668 -3.457,2.527 -1.103,0.86 -2.139,1.664 -3.098,2.421 -0.966,0.759 -1.734,1.288 -2.355,1.591 -0.061,0 -0.108,0.015 -0.149,0.053 -0.435,0.266 -0.722,0.595 -0.857,0.978 -0.127,0.388 -0.148,0.758 -0.049,1.113 0.104,0.356 0.324,0.648 0.653,0.883 0.341,0.232 0.759,0.334 1.265,0.301 1.483,-0.369 2.946,-0.629 4.389,-0.776 1.447,-0.157 2.953,-0.114 4.492,0.12 0.568,0.072 1.133,0.178 1.684,0.333 0.566,0.145 1.129,0.311 1.701,0.476 -0.572,1.145 -1.106,2.274 -1.592,3.413 -0.482,1.125 -0.988,2.259 -1.48,3.403 -0.145,0.33 -0.161,0.631 -0.038,0.884 0.125,0.255 0.286,0.43 0.481,0.531 0.205,0.098 0.43,0.116 0.711,0.047 0.265,-0.069 0.486,-0.256 0.648,-0.553 0.573,-1.044 1.188,-2.202 1.842,-3.457 0.658,-1.263 1.381,-2.519 2.149,-3.758 l 0.578,0 c 0.189,0 0.386,-0.016 0.58,-0.053 C 4.354,10.529 5.031,10.417 5.723,10.243 6.41,10.079 7.014,9.75 7.525,9.239 8.352,8.401 8.947,7.551 9.25,6.692 9.58,5.834 9.707,5.04 9.656,4.318 9.615,3.589 9.383,2.976 9.006,2.479 8.615,1.97 8.139,1.639 7.568,1.492 6.99,1.341 6.377,1.417 5.703,1.712 5.027,2.023 4.369,2.605 3.729,3.485 3.189,4.223 2.793,4.782 2.52,5.149 2.248,5.524 1.984,5.958 1.707,6.467 0.203,6.193 -1.209,5.966 -2.496,5.778 -3.801,5.595 -5.082,5.503 -6.361,5.503 -5.387,4.498 -4.381,3.488 -3.352,2.501 -2.342,1.506 -1.217,0.674 0,0"
           inkscape:connector-curvature="0" />
      </g>
      <g
         style="fill:#000000"
         transform="matrix(1.25,0,0,-1.25,919.43413,712.8203)"
         id="g40533">
        <path
           id="path40535"
           style="fill:#000000;fill-opacity:1;fill-rule:nonzero;stroke:none"
           d="m 0,0 c 0,-2.503 -0.826,-4.426 -2.467,-5.765 -1.638,-1.333 -3.72,-2.006 -6.222,-2.006 -1.788,0 -3.706,0.378 -5.774,1.13 -2.058,0.75 -3.945,1.822 -5.682,3.216 -1.712,1.386 -3.156,3.033 -4.298,4.931 -1.137,1.889 -1.707,4.009 -1.707,6.342 0,2.514 0.804,4.419 2.418,5.722 1.617,1.317 3.687,1.971 6.183,1.971 2.289,0 4.469,-0.441 6.561,-1.334 C -8.9,13.315 -7.033,12.147 -5.389,10.7 -3.748,9.25 -2.434,7.59 -1.461,5.722 -0.484,3.858 0,1.947 0,0 m -23.646,5.684 c 0,-1.619 0.334,-3.084 1.001,-4.393 0.661,-1.307 1.575,-2.428 2.723,-3.378 1.137,-0.949 2.461,-1.671 3.963,-2.179 1.496,-0.49 3.063,-0.752 4.682,-0.752 2.617,0 4.716,0.592 6.3,1.764 1.598,1.167 2.385,3.003 2.385,5.517 0,1.329 -0.306,2.632 -0.929,3.918 -0.598,1.28 -1.465,2.414 -2.583,3.389 -1.109,0.969 -2.437,1.752 -3.972,2.336 -1.524,0.583 -3.209,0.878 -5.051,0.878 -2.609,0 -4.691,-0.555 -6.221,-1.672 -1.537,-1.116 -2.298,-2.924 -2.298,-5.428"
           inkscape:connector-curvature="0" />
      </g>
      <g
         style="fill:#000000"
         transform="matrix(1.25,0,0,-1.25,919.43413,712.8203)"
         id="g40537">
        <path
           id="path40539"
           style="fill:#000000;fill-opacity:1;fill-rule:nonzero;stroke:none"
           d="m 0,0 c 0,-2.503 -0.826,-4.426 -2.467,-5.765 -1.638,-1.333 -3.72,-2.006 -6.222,-2.006 -1.788,0 -3.706,0.378 -5.774,1.13 -2.058,0.75 -3.945,1.822 -5.682,3.216 -1.712,1.386 -3.156,3.033 -4.298,4.931 -1.137,1.889 -1.707,4.009 -1.707,6.342 0,2.514 0.804,4.419 2.418,5.722 1.617,1.317 3.687,1.971 6.183,1.971 2.289,0 4.469,-0.441 6.561,-1.334 C -8.9,13.315 -7.033,12.147 -5.389,10.7 -3.748,9.25 -2.434,7.59 -1.461,5.722 -0.484,3.858 0,1.947 0,0 m -23.646,5.684 c 0,-1.619 0.334,-3.084 1.001,-4.393 0.661,-1.307 1.575,-2.428 2.723,-3.378 1.137,-0.949 2.461,-1.671 3.963,-2.179 1.496,-0.49 3.063,-0.752 4.682,-0.752 2.617,0 4.716,0.592 6.3,1.764 1.598,1.167 2.385,3.003 2.385,5.517 0,1.329 -0.306,2.632 -0.929,3.918 -0.598,1.28 -1.465,2.414 -2.583,3.389 -1.109,0.969 -2.437,1.752 -3.972,2.336 -1.524,0.583 -3.209,0.878 -5.051,0.878 -2.609,0 -4.691,-0.555 -6.221,-1.672 -1.537,-1.116 -2.298,-2.924 -2.298,-5.428"
           inkscape:connector-curvature="0" />
      </g>
      <g
         style="fill:#000000"
         transform="matrix(1.25,0,0,-1.25,922.11725,747.4248)"
         id="g40541">
        <path
           id="path40543"
           style="fill:#000000;fill-opacity:1;fill-rule:nonzero;stroke:none"
           d="m 0,0 -0.23,0 c -1.186,0 -2.86,0.683 -5.002,2.06 -2.137,1.367 -4.53,3.314 -7.174,5.822 -0.764,0.698 -1.797,1.681 -3.119,2.939 -4.516,4.386 -7.741,6.565 -9.661,6.565 -1.142,0 -1.994,-0.389 -2.564,-1.161 -0.578,-0.784 -0.854,-1.925 -0.854,-3.45 0,-1.822 0.604,-3.305 1.831,-4.441 1.211,-1.139 2.822,-1.708 4.785,-1.708 0.045,0 0.125,0.007 0.228,0.029 0.108,0.017 0.188,0.027 0.239,0.027 0.705,0 1.193,-0.127 1.48,-0.377 0.285,-0.252 0.434,-0.679 0.434,-1.286 0,-0.665 -0.116,-1.105 -0.321,-1.345 -0.203,-0.232 -0.656,-0.35 -1.361,-0.35 -2.436,0 -4.504,0.934 -6.207,2.792 -1.701,1.851 -2.547,4.174 -2.547,6.961 0,2.349 0.553,4.212 1.664,5.575 1.113,1.372 2.608,2.061 4.483,2.061 1.574,0 3.107,-0.501 4.57,-1.506 1.471,-0.996 3.172,-2.783 5.123,-5.345 l 1.162,-1.485 C -8.832,6.93 -5.773,3.66 -3.885,2.572 l 0,10.037 c 0,2.817 -0.601,4.926 -1.791,6.329 -0.207,0.232 -0.314,0.388 -0.314,0.463 0,0.233 0.029,0.383 0.078,0.456 0.057,0.066 0.117,0.098 0.201,0.098 0.959,0 2.147,-0.973 3.576,-2.929 C -0.707,15.07 0,12.877 0,10.445 L 0,0 z"
           inkscape:connector-curvature="0" />
      </g>
    </g>
  </g>
</svg>
